<?xml version="1.0" standalone="no"?>
<!DOCTYPE svg PUBLIC "-//W3C//DTD SVG 20010904//EN"
 "http://www.w3.org/TR/2001/REC-SVG-20010904/DTD/svg10.dtd">
<svg version="1.0" xmlns="http://www.w3.org/2000/svg"
 width="600.000000pt" height="600.000000pt" viewBox="0 0 600.000000 600.000000"
 preserveAspectRatio="xMidYMid meet">
<metadata>
Created by potrace 1.11, written by Peter Selinger 2001-2013
</metadata>
<g transform="translate(0.000000,600.000000) scale(0.100000,-0.100000)"
fill="#000000" stroke="none">
<path d="M3050 5985 c-124 -33 -212 -118 -256 -245 -18 -53 -18 -117 -19
-1585 -1 -841 3 -1554 7 -1583 25 -164 162 -283 338 -296 173 -13 313 66 384
214 l31 65 2 675 c1 371 2 686 3 700 0 25 1 24 31 -10 16 -19 49 -55 73 -80
23 -25 91 -99 151 -165 60 -66 114 -125 120 -131 5 -6 48 -53 95 -104 47 -51
99 -108 115 -125 17 -18 48 -52 69 -76 22 -24 65 -71 95 -104 98 -105 255
-277 274 -299 24 -27 164 -181 242 -265 143 -154 249 -245 325 -278 51 -22
190 -21 264 2 170 54 255 179 244 360 -8 114 -48 191 -169 320 -103 109 -130
138 -289 305 -91 95 -173 182 -182 192 -10 11 -91 97 -180 191 -187 196 -299
314 -419 441 -46 49 -98 103 -115 121 l-31 33 536 537 c498 499 598 605 636
679 74 141 42 314 -77 421 -85 76 -163 105 -274 99 -113 -5 -181 -39 -284
-144 -61 -62 -275 -290 -309 -329 -9 -10 -68 -73 -131 -141 -63 -68 -122 -131
-130 -140 -8 -9 -67 -73 -130 -140 -63 -68 -119 -128 -125 -134 -33 -37 -269
-291 -317 -341 -31 -33 -68 -73 -82 -90 -17 -19 -26 -25 -26 -15 -1 8 -2 281
-3 605 -2 587 -3 590 -25 646 -38 96 -128 181 -224 210 -50 16 -187 18 -238 4z"/>
<path d="M1468 5402 c-19 -15 -55 -44 -79 -64 -24 -20 -78 -64 -119 -98 -236
-195 -280 -232 -280 -239 0 -5 95 -170 211 -367 269 -458 243 -405 220 -456
-10 -24 -47 -113 -81 -198 -35 -85 -82 -202 -106 -260 l-44 -105 -326 -54
c-180 -30 -336 -55 -348 -57 -12 -1 -46 -7 -76 -13 -30 -6 -66 -12 -80 -15
-61 -11 -57 15 -56 -363 l1 -347 30 -8 c17 -5 179 -46 360 -93 446 -114 516
-133 520 -137 8 -9 235 -574 235 -586 0 -7 -19 -37 -42 -67 -24 -29 -56 -70
-73 -91 -16 -22 -125 -161 -241 -310 -222 -284 -223 -286 -177 -325 10 -8 88
-89 173 -178 301 -317 298 -314 312 -305 7 4 54 35 103 69 50 34 209 142 355
240 146 98 276 187 289 197 32 24 47 23 117 -10 32 -16 166 -75 296 -133 l237
-104 7 -40 c4 -22 8 -42 9 -45 3 -9 16 -65 25 -105 28 -120 82 -362 85 -375 2
-8 15 -67 30 -130 15 -63 29 -126 31 -140 3 -14 9 -40 15 -57 l11 -33 331 4
c183 2 342 5 353 5 17 1 23 10 29 44 10 60 8 50 98 497 l82 405 105 42 c58 23
112 44 120 47 8 2 97 38 198 79 l183 74 192 -125 c106 -69 217 -140 247 -159
30 -19 96 -60 145 -93 167 -109 206 -132 218 -127 13 5 372 493 382 519 5 13
-91 110 -298 302 -18 16 -77 72 -132 125 -91 86 -277 262 -425 400 -30 28 -57
51 -60 51 -3 0 -25 -18 -50 -40 -383 -345 -782 -555 -1199 -635 -100 -19 -315
-25 -435 -12 -219 24 -445 105 -638 230 -485 313 -785 884 -781 1487 0 82 11
229 18 240 2 3 6 26 10 50 21 149 114 405 198 545 22 36 126 190 149 219 55
69 251 257 335 321 51 39 93 77 94 85 7 94 2 486 -6 497 -9 12 -30 5 -120 -41
-60 -31 -115 -56 -122 -56 -10 0 -255 152 -553 345 -115 74 -166 105 -172 105
-3 0 -21 -12 -40 -28z"/>
</g>
</svg>
