<?xml version="1.0" standalone="no"?>
<!DOCTYPE svg PUBLIC "-//W3C//DTD SVG 20010904//EN"
 "http://www.w3.org/TR/2001/REC-SVG-20010904/DTD/svg10.dtd">
<svg version="1.0" xmlns="http://www.w3.org/2000/svg"
 width="500.000000pt" height="500.000000pt" viewBox="0 0 500.000000 500.000000"
 preserveAspectRatio="xMidYMid meet">
<metadata>
Created by potrace 1.11, written by Peter Selinger 2001-2013
</metadata>
<g transform="translate(0.000000,500.000000) scale(0.100000,-0.100000)"
fill="#000000" stroke="none">
<path d="M600 3565 l0 -65 125 0 125 0 0 -1035 0 -1035 -125 0 -125 0 0 -65 0
-65 335 0 335 0 0 65 0 65 -140 0 -140 0 0 454 0 454 145 137 c80 76 147 136
149 134 1 -2 208 -266 459 -586 251 -320 457 -585 457 -588 0 -3 -43 -5 -95
-5 l-95 0 0 -65 0 -65 320 0 320 0 0 65 0 65 -137 0 -138 1 -130 166 c-71 91
-295 376 -497 632 -202 256 -366 470 -365 475 2 4 189 185 417 402 l414 394
143 0 143 0 0 65 0 65 -320 0 -320 0 0 -65 0 -64 84 -3 85 -3 -346 -330 c-190
-181 -424 -406 -519 -499 l-174 -168 0 501 0 501 125 0 125 0 0 65 0 65 -320
0 -320 0 0 -65z"/>
<path d="M2880 3566 l0 -66 105 0 105 0 -2 -1032 -3 -1033 -102 -3 -103 -3 0
-65 0 -65 478 3 c455 4 481 5 557 26 252 69 431 236 474 440 16 75 14 208 -4
277 -50 189 -209 346 -418 411 l-58 18 58 21 c218 79 346 284 346 555 0 179
-45 303 -147 406 -69 69 -150 113 -271 146 -76 21 -102 22 -547 26 l-468 3 0
-65z m979 -89 c176 -52 279 -160 311 -326 43 -229 -53 -451 -238 -549 -99 -53
-164 -62 -454 -62 l-258 0 0 481 0 481 293 -5 c225 -3 304 -8 346 -20z m-149
-1077 c195 -21 324 -74 426 -175 74 -73 111 -148 124 -248 26 -206 -69 -383
-253 -471 -127 -61 -170 -68 -494 -73 l-293 -5 0 484 c0 267 3 488 7 491 10
11 376 8 483 -3z"/>
</g>
</svg>
